<?xml version="1.0" encoding="utf-8"?>
<!-- Generator: Adobe Illustrator 14.0.0, SVG Export Plug-In . SVG Version: 6.00 Build 43363)  -->
<!DOCTYPE svg PUBLIC "-//W3C//DTD SVG 1.1//EN" "http://www.w3.org/Graphics/SVG/1.1/DTD/svg11.dtd">
<svg version="1.1" id="Ebene_1" xmlns="http://www.w3.org/2000/svg" xmlns:xlink="http://www.w3.org/1999/xlink" x="0px" y="0px"
	 width="23px" height="23px" viewBox="0 0 23 23" enable-background="new 0 0 23 23" xml:space="preserve">
<g>
	<g>
		<path d="M11.46,16.729l-5.845-5.845V9.507l5.332,5.347V3.296h1.025v11.558l5.333-5.347v1.377L11.46,16.729z"/>
		<path d="M19.4,18.654H3.521v-1.112H19.4"/>
	</g>
	<path d="M19.96,1c1.103,0,2,0.897,2,2v17c0,1.103-0.897,2-2,2h-17c-1.103,0-2-0.897-2-2V3c0-1.103,0.897-2,2-2H19.96 M19.96,0h-17
		c-1.65,0-3,1.351-3,3v17c0,1.649,1.35,3,3,3h17c1.65,0,3-1.351,3-3V3C22.96,1.351,21.61,0,19.96,0L19.96,0z"/>
</g>
</svg>
